<?xml version="1.0" encoding="UTF-8" standalone="no"?>
<!DOCTYPE svg PUBLIC "-//W3C//DTD SVG 1.1//EN" "http://www.w3.org/Graphics/SVG/1.1/DTD/svg11.dtd">
<svg width="100%" height="100%" viewBox="0 0 501 500" version="1.1"
    xmlns="http://www.w3.org/2000/svg" xmlns:xlink="http://www.w3.org/1999/xlink"
    xml:space="preserve" xmlns:serif="http://www.serif.com/"
    style="fill-rule:evenodd;clip-rule:evenodd;stroke-linejoin:round;stroke-miterlimit:2;">
    <g transform="matrix(1,0,0,1,-2324,0)">
        <g id="Z-purple" serif:id="Z purple" transform="matrix(0.932754,0,0,1.05464,1234.81,-569.506)">
            <rect x="1168" y="540" width="536.047" height="474.095" style="fill:none;"/>
            <clipPath id="_clip1">
                <rect x="1168" y="540" width="536.047" height="474.095"/>
            </clipPath>
            <g clip-path="url(#_clip1)">
                <g transform="matrix(1.10544,0,0,0.977882,-1412.01,12.0571)">
                    <rect x="2333.93" y="539.884" width="484.919" height="484.819" style="fill:url(#_Linear2);"/>
                </g>
                <g transform="matrix(1.12797,0,0,0.99761,-1470.8,7.01894)">
                    <path d="M2709,571.607C2727.12,571.607 2744.49,578.803 2757.3,591.613C2770.11,604.422 2777.31,621.796 2777.31,639.912L2777.31,903.836C2777.31,921.951 2770.11,939.325 2757.3,952.134C2744.49,964.944 2727.12,972.14 2709,972.14L2445.08,972.14C2426.96,972.14 2409.59,964.944 2396.78,952.134C2383.97,939.325 2376.77,921.951 2376.77,903.836L2376.77,639.912C2376.77,621.796 2383.97,604.422 2396.78,591.613C2409.59,578.803 2426.96,571.607 2445.08,571.607L2709,571.607Z" style="fill:rgb(34,36,38);"/>
                </g>
                <g transform="matrix(0.695045,0,0,0.695045,431.654,242.016)">
                    <g transform="matrix(-0.776105,-0.654146,1.50316,-1.39501,2180.72,1943.39)">
                        <path d="M1315.26,79.777C1334.05,79.788 1352.07,83.466 1365.36,90.005C1378.67,96.554 1386.14,105.437 1386.14,114.698L1386.14,336.113C1367.32,336.113 1349.27,332.433 1335.96,325.884C1322.65,319.335 1315.17,310.453 1315.17,301.191L1315.17,79.777C1315.2,79.777 1315.23,79.777 1315.26,79.777Z" style="fill:white;"/>
                    </g>
                    <g transform="matrix(1.45547,0,0,1.71673,-462.723,811.94)">
                        <path d="M1299.36,54.417L1414.63,54.417C1428.87,54.417 1440.41,63.072 1440.41,73.748L1440.41,73.749C1440.41,84.425 1428.87,93.079 1414.63,93.079C1362.66,93.079 1250.22,93.079 1250.22,93.079L1299.36,54.417Z" style="fill:white;"/>
                    </g>
                    <g transform="matrix(-1.45547,-1.57643e-16,2.37712e-16,-1.71673,3352.81,727.564)">
                        <path d="M1299.36,54.417L1414.63,54.417C1428.87,54.417 1440.41,63.072 1440.41,73.748L1440.41,73.749C1440.41,84.425 1428.87,93.079 1414.63,93.079C1362.66,93.079 1250.22,93.079 1250.22,93.079L1299.36,54.417Z" style="fill:white;"/>
                    </g>
                </g>
            </g>
        </g>
    </g>
    <defs>
        <linearGradient id="_Linear2" x1="0" y1="0" x2="1" y2="0" gradientUnits="userSpaceOnUse" gradientTransform="matrix(484.919,484.819,-484.919,484.819,2333.93,539.884)"><stop offset="0" style="stop-color:rgb(122,97,244);stop-opacity:1"/><stop offset="1" style="stop-color:rgb(161,111,244);stop-opacity:1"/></linearGradient>
    </defs>
</svg>